<svg width="976" height="270" viewBox="0 0 976 270" fill="none" xmlns="http://www.w3.org/2000/svg">
<path d="M134.966 0C60.428 0 0 60.4264 0 134.965C0 209.511 60.428 269.934 134.966 269.934C209.508 269.934 269.933 209.511 269.933 134.965C269.933 60.4312 209.511 0.00644175 134.965 0.00644175L134.966 0ZM915.239 132.792C906.98 132.792 900.555 126.16 900.555 118.106C900.555 110.053 907.064 103.345 915.316 103.345C923.574 103.345 930 109.976 930 118.023C930 126.076 923.489 132.792 915.237 132.792H915.239ZM915.319 104.805C907.798 104.805 902.107 110.785 902.107 118.106C902.107 125.425 907.757 131.324 915.243 131.324C922.763 131.324 928.461 125.349 928.461 118.023C928.461 110.704 922.804 104.805 915.326 104.805H915.319ZM918.575 119.533L922.728 125.348H919.226L915.487 120.013H912.272V125.348H909.34V109.934H916.214C919.795 109.934 922.15 111.766 922.15 114.851C922.166 117.378 920.699 118.922 918.588 119.533L918.575 119.533ZM916.093 112.579H912.27V117.454H916.093C918.001 117.454 919.14 116.521 919.14 115.014C919.14 113.428 917.996 112.579 916.094 112.579L916.093 112.579Z" fill="white"/>
<path d="M348.98 114.76V190H326.21V72.85H344.36L404.915 150.07V73.015H427.685V190H408.71L348.98 114.76ZM449.085 157.66V103.54H471.195V152.875C471.195 159.475 472.405 164.48 474.825 167.89C477.245 171.19 480.82 172.84 485.55 172.84C488.41 172.84 491.215 172.29 493.965 171.19C496.825 169.98 499.41 168.22 501.72 165.91C504.14 163.6 506.175 160.685 507.825 157.165V103.54H529.935V165.25C529.935 167.56 530.32 169.21 531.09 170.2C531.97 171.19 533.345 171.795 535.215 172.015V190C533.015 190.33 531.145 190.55 529.605 190.66C528.175 190.88 526.855 190.99 525.645 190.99C521.685 190.99 518.44 190.11 515.91 188.35C513.49 186.48 512.06 183.95 511.62 180.76L511.125 173.83C507.275 179.66 502.325 184.115 496.275 187.195C490.225 190.165 483.57 191.65 476.31 191.65C467.4 191.65 460.635 188.79 456.015 183.07C451.395 177.24 449.085 168.77 449.085 157.66ZM566.097 103.54L584.247 130.6L585.567 133.57L587.217 130.6L605.202 103.54H628.467L598.437 146.605L628.962 190H605.697L587.052 163.105L585.567 160.3L584.247 163.105L565.767 190H542.502L573.027 147.1L542.997 103.54H566.097ZM691.373 185.545C689.503 186.315 687.248 187.195 684.608 188.185C681.968 189.175 679.108 189.945 676.028 190.495C673.058 191.155 670.033 191.485 666.953 191.485C662.883 191.485 659.143 190.77 655.733 189.34C652.323 187.91 649.573 185.655 647.483 182.575C645.503 179.385 644.513 175.26 644.513 170.2V120.535H633.128V103.54H644.513V75.49H666.623V103.54H684.773V120.535H666.623V162.775C666.733 165.745 667.558 167.89 669.098 169.21C670.638 170.53 672.563 171.19 674.873 171.19C677.183 171.19 679.438 170.805 681.638 170.035C683.838 169.265 685.598 168.605 686.918 168.055L691.373 185.545ZM702.888 190V103.54H724.998V190H702.888ZM702.888 91.495V69.55H724.998V91.495H702.888ZM750.224 190V124.99H738.839V108.16H750.224V102.88C750.224 95.73 751.379 89.57 753.689 84.4C756.109 79.12 759.464 75.05 763.754 72.19C768.154 69.33 773.269 67.9 779.099 67.9C782.619 67.9 786.139 68.34 789.659 69.22C793.289 70.1 796.864 71.365 800.384 73.015L795.929 89.68C794.279 88.8 792.354 88.085 790.154 87.535C787.954 86.875 785.864 86.545 783.884 86.545C780.144 86.545 777.284 87.865 775.304 90.505C773.324 93.145 772.334 96.995 772.334 102.055V108.16H793.454V124.99H772.334V190H750.224ZM807.828 206.83C809.808 207.27 811.623 207.655 813.273 207.985C815.033 208.315 816.518 208.48 817.728 208.48C819.818 208.48 821.523 207.93 822.843 206.83C824.273 205.84 825.648 203.97 826.968 201.22C828.288 198.58 829.663 194.84 831.093 190L796.938 103.54H819.873L843.138 167.395L863.598 103.54H884.718L848.418 207.16C847.098 211.01 845.063 214.475 842.313 217.555C839.673 220.745 836.318 223.22 832.248 224.98C828.288 226.85 823.833 227.785 818.883 227.785C817.123 227.785 815.363 227.62 813.603 227.29C811.843 227.07 809.918 226.63 807.828 225.97V206.83Z" fill="white"/>
<path fill-rule="evenodd" clip-rule="evenodd" d="M212.715 121.977C222.428 116.328 222.428 102.205 212.715 96.5555L106.855 34.9882C97.1416 29.3391 85 36.4005 85 47.6989L85 95.7618C89.2193 90.9339 96.5183 89.1461 102.781 92.7996L182.709 139.428L212.715 121.977Z" fill="#80EEC0"/>
<path d="M189.494 160.987C197.441 165.663 197.441 177.35 189.494 182.026L102.881 232.977C94.9342 237.653 85.0001 231.809 85.0001 222.459L85.0001 120.554C85.0001 111.204 94.9342 105.36 102.881 110.035L189.494 160.987Z" fill="#00DC82"/>
</svg>
